<svg width="22" height="22" viewBox="0 0 22 22" fill="none" xmlns="http://www.w3.org/2000/svg">
<path fill-rule="evenodd" clip-rule="evenodd" d="M19.2498 7.33337C19.2498 5.81459 18.0187 4.58337 16.4998 4.58337H9.1665C7.64772 4.58337 6.4165 5.81459 6.4165 7.33337V18.3334C6.4165 19.8522 7.64772 21.0834 9.1665 21.0834H16.4998C18.0187 21.0834 19.2498 19.8522 19.2498 18.3334V7.33337ZM17.4165 7.33337C17.4165 6.82712 17.0061 6.41671 16.4998 6.41671H9.1665C8.66025 6.41671 8.24984 6.82712 8.24984 7.33337V18.3334C8.24984 18.8396 8.66025 19.25 9.1665 19.25H16.4998C17.0061 19.25 17.4165 18.8396 17.4165 18.3334V7.33337Z" fill="black"/>
<path d="M5.5 2.74996H14.6667C15.1729 2.74996 15.5833 2.33955 15.5833 1.83329C15.5833 1.32704 15.1729 0.916626 14.6667 0.916626H5.5C3.98122 0.916626 2.75 2.14785 2.75 3.66663V16.5C2.75 17.0062 3.16041 17.4166 3.66667 17.4166C4.17292 17.4166 4.58333 17.0062 4.58333 16.5V3.66663C4.58333 3.16037 4.99374 2.74996 5.5 2.74996Z" fill="black"/>
</svg>
